<?xml version="1.0" encoding="utf-8"?>
<svg width="307" height="356" viewBox="0 0 307 356" fill="none" xmlns="http://www.w3.org/2000/svg">
  <g transform="translate(10 0)">
    <path d="M42.66 62.1467C31.8633 62.1467 23.7 70.5733 23.7 81.8967C23.7 93.4833 32.39 101.383 42.9233 101.383C53.9833 101.383 62.41 93.22 62.41 81.37C62.41 70.5733 54.51 62.1467 42.66 62.1467ZM45.5567 122.187L8.42667 134.563L8.42667 145.097L25.8067 145.097L25.8067 235.947L22.12 239.897L7.9 240.95L7.9 252.8L76.8933 252.8L76.8933 240.95L62.1467 239.897L58.1967 235.947L58.1967 122.187L45.5567 122.187Z" fill="white" transform="translate(102 0)" />
    <path d="M0 143.5C0 64.2471 64.2471 0 143.5 0C222.753 0 287 64.2471 287 143.5C287 222.753 222.753 287 143.5 287C64.2471 287 0 222.753 0 143.5Z" fill="none" stroke-width="20" stroke="white" transform="translate(0 26)" />
  </g>
</svg>