<?xml version="1.0" encoding="utf-8"?>
<svg width="262" height="254" viewBox="0 0 262 254" fill="none" xmlns="http://www.w3.org/2000/svg">
  <path d="M129.394 8.9129L159.838 70.6732Q159.972 70.9443 160.138 71.1969Q160.304 71.4495 160.5 71.6797Q160.695 71.91 160.918 72.1145Q161.14 72.319 161.386 72.4945Q161.632 72.6701 161.898 72.8141Q162.164 72.9581 162.445 73.0683Q162.727 73.1786 163.019 73.2534Q163.312 73.3282 163.612 73.3665L233.426 82.2748Q233.599 82.2968 233.77 82.331Q233.94 82.3652 234.108 82.4114Q234.275 82.4576 234.439 82.5156Q234.603 82.5736 234.763 82.6431Q234.922 82.7125 235.076 82.7931Q235.231 82.8737 235.379 82.965Q235.527 83.0564 235.668 83.158Q235.809 83.2596 235.943 83.3709Q236.076 83.4823 236.202 83.6028Q236.327 83.7234 236.443 83.8525Q236.56 83.9817 236.667 84.1188Q236.774 84.2558 236.871 84.4002Q236.968 84.5445 237.055 84.6953Q237.141 84.8462 237.217 85.0028Q237.293 85.1594 237.357 85.321Q237.421 85.4826 237.474 85.6483Q237.527 85.814 237.568 85.9831Q237.609 86.1522 237.637 86.3237Q237.666 86.4952 237.683 86.6684Q237.699 86.8415 237.703 87.0154Q237.708 87.1893 237.7 87.363Q237.691 87.5367 237.671 87.7095Q237.651 87.8822 237.618 88.053Q237.585 88.2239 237.541 88.392Q237.496 88.5601 237.439 88.7246Q237.383 88.8891 237.315 89.0492Q237.247 89.2092 237.168 89.3641Q237.089 89.519 236.999 89.6678Q236.909 89.8167 236.808 89.9588Q236.708 90.1008 236.598 90.2355Q236.488 90.3701 236.368 90.4966Q236.249 90.623 236.121 90.7407L185.262 137.475Q185.032 137.686 184.831 137.924Q184.631 138.162 184.461 138.424Q184.292 138.686 184.158 138.967Q184.023 139.248 183.925 139.544Q183.828 139.84 183.768 140.146Q183.708 140.452 183.688 140.763Q183.668 141.074 183.687 141.385Q183.706 141.696 183.765 142.002L196.563 208.906Q196.595 209.075 196.616 209.246Q196.636 209.416 196.645 209.588Q196.653 209.759 196.649 209.931Q196.646 210.103 196.63 210.274Q196.614 210.445 196.587 210.614Q196.559 210.784 196.519 210.951Q196.48 211.118 196.429 211.282Q196.378 211.446 196.316 211.606Q196.253 211.767 196.18 211.922Q196.106 212.077 196.022 212.227Q195.938 212.377 195.843 212.52Q195.749 212.664 195.645 212.8Q195.54 212.937 195.427 213.065Q195.313 213.194 195.191 213.315Q195.068 213.436 194.938 213.547Q194.807 213.659 194.669 213.761Q194.531 213.864 194.387 213.956Q194.242 214.048 194.091 214.131Q193.94 214.213 193.784 214.284Q193.627 214.355 193.466 214.415Q193.306 214.475 193.141 214.524Q192.976 214.573 192.808 214.61Q192.641 214.647 192.471 214.672Q192.301 214.697 192.129 214.71Q191.958 214.724 191.786 214.725Q191.615 214.726 191.443 214.715Q191.272 214.704 191.101 214.682Q190.931 214.659 190.763 214.624Q190.595 214.589 190.429 214.543Q190.264 214.497 190.102 214.439Q189.94 214.381 189.783 214.312Q189.626 214.243 189.474 214.163L127.278 181.487Q127.016 181.349 126.738 181.244Q126.461 181.138 126.173 181.067Q125.885 180.996 125.591 180.961Q125.297 180.925 125 180.925Q124.703 180.925 124.409 180.961Q124.115 180.996 123.827 181.067Q123.539 181.138 123.262 181.244Q122.984 181.349 122.722 181.487L60.5263 214.163Q60.3742 214.243 60.2169 214.312Q60.0596 214.381 59.8979 214.439Q59.7361 214.497 59.5707 214.543Q59.4053 214.589 59.2371 214.624Q59.0688 214.659 58.8985 214.682Q58.7283 214.704 58.5568 214.715Q58.3854 214.726 58.2136 214.725Q58.0418 214.724 57.8705 214.71Q57.6993 214.697 57.5293 214.672Q57.3594 214.647 57.1917 214.61Q57.0239 214.573 56.8592 214.524Q56.6945 214.475 56.5335 214.415Q56.3726 214.355 56.2163 214.284Q56.06 214.212 55.9091 214.13Q55.7581 214.048 55.6133 213.956Q55.4685 213.864 55.3305 213.761Q55.1925 213.659 55.062 213.547Q54.9315 213.436 54.8092 213.315Q54.6869 213.194 54.5733 213.065Q54.4597 212.937 54.3554 212.8Q54.2511 212.664 54.1567 212.52Q54.0622 212.377 53.978 212.227Q53.8938 212.077 53.8204 211.922Q53.7469 211.767 53.6845 211.606Q53.622 211.446 53.571 211.282Q53.5199 211.118 53.4805 210.951Q53.4411 210.784 53.4134 210.614Q53.3858 210.445 53.3701 210.274Q53.3544 210.103 53.3508 209.931Q53.3471 209.759 53.3555 209.588Q53.3639 209.416 53.3842 209.246Q53.4046 209.075 53.4369 208.906L66.235 142.002Q66.2936 141.696 66.3129 141.385Q66.3322 141.074 66.3119 140.763Q66.2916 140.452 66.232 140.146Q66.1725 139.84 66.0746 139.544Q65.9768 139.248 65.8423 138.967Q65.7077 138.686 65.5386 138.424Q65.3695 138.162 65.1686 137.924Q64.9677 137.686 64.7382 137.475L13.8792 90.7407Q13.7511 90.623 13.6317 90.4966Q13.5123 90.3701 13.4021 90.2355Q13.292 90.1008 13.1917 89.9587Q13.0914 89.8167 13.0014 89.6678Q12.9115 89.519 12.8323 89.3641Q12.7531 89.2092 12.6851 89.0492Q12.6171 88.8891 12.5606 88.7246Q12.5041 88.5601 12.4594 88.392Q12.4147 88.2239 12.3821 88.0531Q12.3495 87.8822 12.329 87.7095Q12.3086 87.5368 12.3005 87.363Q12.2923 87.1893 12.2965 87.0154Q12.3007 86.8415 12.3173 86.6684Q12.3338 86.4952 12.3626 86.3237Q12.3913 86.1522 12.4322 85.9831Q12.473 85.814 12.5258 85.6483Q12.5785 85.4826 12.6429 85.321Q12.7073 85.1594 12.783 85.0028Q12.8586 84.8462 12.9452 84.6953Q13.0318 84.5445 13.1289 84.4002Q13.2259 84.2558 13.333 84.1188Q13.44 83.9817 13.5566 83.8525Q13.6731 83.7234 13.7984 83.6028Q13.9238 83.4823 14.0574 83.3709Q14.191 83.2596 14.3322 83.158Q14.4734 83.0564 14.6214 82.965Q14.7694 82.8737 14.9236 82.7931Q15.0777 82.7125 15.2372 82.6431Q15.3966 82.5736 15.5606 82.5156Q15.7246 82.4576 15.8923 82.4114Q16.0599 82.3652 16.2305 82.331Q16.401 82.2968 16.5735 82.2748L86.388 73.3665Q86.6878 73.3282 86.9806 73.2534Q87.2734 73.1786 87.5548 73.0683Q87.8362 72.9581 88.1019 72.8141Q88.3676 72.6701 88.6136 72.4945Q88.8596 72.319 89.0821 72.1145Q89.3047 71.91 89.5004 71.6797Q89.6961 71.4495 89.8621 71.1969Q90.028 70.9443 90.1616 70.6732L120.606 8.9129Q120.682 8.76005 120.768 8.61281Q120.853 8.46556 120.949 8.32464Q121.045 8.18371 121.15 8.04978Q121.256 7.91585 121.37 7.78957Q121.485 7.66329 121.607 7.54527Q121.73 7.42725 121.861 7.31805Q121.992 7.20886 122.13 7.10902Q122.268 7.00918 122.413 6.91917Q122.558 6.82917 122.708 6.74945Q122.859 6.66972 123.015 6.60065Q123.17 6.53159 123.331 6.47351Q123.491 6.41544 123.655 6.36864Q123.819 6.32184 123.985 6.28654Q124.152 6.25124 124.321 6.22761Q124.49 6.20398 124.66 6.19214Q124.83 6.1803 125 6.1803Q125.17 6.1803 125.34 6.19214Q125.51 6.20398 125.679 6.22761Q125.848 6.25124 126.015 6.28654Q126.181 6.32184 126.345 6.36864Q126.509 6.41544 126.669 6.47351Q126.83 6.53159 126.985 6.60065Q127.141 6.66972 127.292 6.74945Q127.442 6.82917 127.587 6.91917Q127.732 7.00918 127.87 7.10902Q128.008 7.20886 128.139 7.31805Q128.27 7.42725 128.393 7.54527Q128.515 7.66329 128.63 7.78957Q128.744 7.91585 128.85 8.04978Q128.955 8.18371 129.051 8.32464Q129.147 8.46556 129.232 8.61281Q129.318 8.76005 129.394 8.9129Z" fill="#D7A51C" fill-rule="evenodd" transform="translate(6 2)" />
</svg>